<?xml version="1.0" encoding="utf-8"?>
<!-- Generator: Adobe Illustrator 22.1.0, SVG Export Plug-In . SVG Version: 6.00 Build 0)  -->
<svg version="1.1" id="Layer_1" xmlns="http://www.w3.org/2000/svg" xmlns:xlink="http://www.w3.org/1999/xlink" x="0px" y="0px"
	 viewBox="0 0 228 255" style="enable-background:new 0 0 228 255;" xml:space="preserve">
<style type="text/css">
	.st0{fill:#FFFFFF;}
</style>
<g>
	<path class="st0" d="M0.5,69.5l3.8-7.2c1-1.9,2.3-3,3.9-3.4c1.6-0.4,3.4,0,5.4,1.1c2.3,1.2,3.6,2.6,3.9,4.2
		c0.3,1.6-0.1,3.3-1.1,5.3l-1,1.9l9.1,4.9L21.9,81L0.5,69.5z M12.9,68c0.4-0.8,0.5-1.5,0.2-2c-0.3-0.5-1-1-2-1.6
		c-1-0.5-1.7-0.8-2.3-0.7c-0.6,0-1.1,0.5-1.6,1.3l-0.8,1.6l5.7,3L12.9,68z"/>
	<path class="st0" d="M29.6,66.7c-0.7,0.3-1.4,0.3-2.1,0.2c-0.7-0.1-1.3-0.4-1.9-0.8c-1.1-0.8-1.8-1.7-2.1-2.8
		c-0.3-1.1-0.4-2.1-0.2-3.2c0.2-1.1,0.5-2.3,0.9-3.9l-1.4-1c-0.4-0.3-0.8-0.5-1.1-0.5c-0.3,0-0.6,0.1-0.8,0.4
		c-0.2,0.3-0.3,0.6-0.2,0.9c0.1,0.3,0.3,0.5,0.7,0.8l1,0.8l-2.8,3.6c-1.6-1.3-2.6-2.6-2.8-4c-0.2-1.4,0.3-2.9,1.5-4.6
		c1-1.4,2.1-2.2,3.4-2.3c1.3-0.2,2.6,0.2,3.9,1.1l6.6,4.7c1.4,1,2.7,1.8,3.7,2.3l-2.6,3.6c-1.2-0.6-1.9-1-2.2-1.1
		c0.5,0.7,0.8,1.4,0.9,2.1c0.1,0.8-0.1,1.5-0.6,2.2C30.9,66,30.3,66.5,29.6,66.7z M29.8,60.3l-3.8-2.8c-0.1,1-0.1,1.9,0.1,2.6
		c0.2,0.7,0.6,1.3,1.3,1.8c0.5,0.3,0.9,0.5,1.3,0.5c0.4,0,0.7-0.2,1-0.5C30,61.6,30,61,29.8,60.3z"/>
	<path class="st0" d="M38,55.7c-0.7,0.3-1.5,0.3-2.2,0c-0.7-0.3-1.5-0.8-2.3-1.5l-7-6.3l-1.1,1.2L23,47l1.1-1.2l-3.9-3.5l3.3-3.7
		l3.9,3.5l1.6-1.8l2.4,2.1l-1.6,1.8l6.6,6c0.4,0.3,0.7,0.5,1.1,0.4s0.7-0.2,1-0.6c0.3-0.3,0.5-0.7,0.8-1.1l2.9,2.6
		c-0.5,0.8-1.1,1.6-1.8,2.3C39.6,54.8,38.8,55.4,38,55.7z"/>
	<path class="st0" d="M31.8,37.7c0.5-0.5,0.7-1,0.6-1.5c-0.1-0.5-0.5-1.1-1.1-1.7l-1.5,1.4l-3-3.1l3.1-3c0.6,0.7,1.4,1.5,2.3,2.5
		c1.2,1.4,1.9,2.5,2.1,3.5c0.2,0.9-0.2,1.9-1.1,2.8L31.8,37.7z"/>
	<path class="st0" d="M48.2,45c-1.2,0.1-2.5-0.3-4-1.1l1.7-3.2c0.8,0.4,1.4,0.7,2,0.7c0.6,0.1,1.1-0.1,1.5-0.4
		c0.6-0.5,0.7-0.9,0.3-1.4c-0.3-0.3-0.6-0.6-1.1-0.6c-0.5-0.1-1.3-0.1-2.6-0.1l-1.6,0c-1.4,0-2.5-0.2-3.3-0.5
		c-0.8-0.3-1.5-0.8-2.2-1.6c-0.6-0.7-0.9-1.5-1-2.4c-0.1-0.9,0.1-1.7,0.5-2.6c0.4-0.8,0.9-1.5,1.7-2.1c1.1-0.9,2.3-1.3,3.5-1.3
		c1.2,0,2.4,0.4,3.7,1.3l-1.6,3.1c-0.6-0.4-1.2-0.6-1.8-0.8c-0.6-0.1-1.2,0-1.6,0.3c-0.2,0.2-0.4,0.4-0.4,0.7c0,0.3,0,0.5,0.2,0.7
		c0.2,0.3,0.6,0.5,1.2,0.5c0.6,0.1,1.4,0.1,2.5,0.1l1.6,0.1c1.3,0,2.4,0.2,3.3,0.4c0.9,0.2,1.6,0.7,2.2,1.5c0.6,0.8,1,1.6,1,2.4
		c0.1,0.9-0.1,1.7-0.5,2.5s-1,1.5-1.7,2.1C50.6,44.4,49.4,44.9,48.2,45z"/>
	<path class="st0" d="M62.7,33.7c-1.6-0.6-3-2-4.3-4.3l3.7-2.8c0.7,1.4,1.4,2.2,2,2.7c0.6,0.4,1.2,0.5,1.9,0.2
		c0.8-0.4,0.9-1.2,0.4-2.2c-0.4-0.8-1-1.4-1.7-1.8c-0.7-0.4-1.6-0.7-2.8-1l-2.7-0.6c-1.3-0.3-2.5-0.7-3.4-1.4
		c-1-0.6-1.8-1.5-2.4-2.7c-1-1.8-1.2-3.5-0.6-5c0.6-1.5,1.8-2.8,3.6-3.8c2-1.1,3.7-1.2,5.1-0.4c1.4,0.8,2.5,2,3.5,3.7l-3.8,2.7
		c-0.6-1.1-1.1-1.8-1.6-2.2c-0.4-0.4-0.9-0.4-1.5-0.1c-0.4,0.2-0.6,0.6-0.7,1c0,0.5,0.1,0.9,0.3,1.3c0.4,0.7,0.9,1.2,1.5,1.6
		c0.6,0.3,1.4,0.6,2.5,0.9l2.6,0.6c1.5,0.3,2.9,0.9,4,1.6c1.1,0.7,2,1.7,2.8,3.1c0.5,1,0.8,2,0.7,3.1s-0.3,2.1-0.9,3
		s-1.5,1.7-2.6,2.3C66.1,34,64.3,34.3,62.7,33.7z"/>
	<path class="st0" d="M75.5,28.6c-0.7-0.2-1.3-0.5-1.8-1c-0.5-0.5-0.9-1.1-1.1-1.7c-0.5-1.3-0.5-2.4-0.2-3.4c0.3-1,0.9-2,1.6-2.7
		c0.7-0.8,1.7-1.7,2.9-2.7l-0.6-1.6c-0.2-0.5-0.4-0.8-0.6-1c-0.2-0.2-0.5-0.2-0.9-0.1c-0.4,0.1-0.6,0.3-0.6,0.6
		c-0.1,0.3,0,0.6,0.1,1l0.3,1.2l-4.3,1.4c-0.6-2-0.7-3.6-0.1-4.9s1.9-2.3,3.8-3c1.6-0.6,3-0.6,4.2,0c1.2,0.6,2,1.6,2.6,3.1l2.8,7.6
		c0.6,1.7,1.2,3,1.8,3.9l-4.1,1.5c-0.6-1.2-1-1.9-1.2-2.2c0.1,0.8-0.1,1.6-0.4,2.3c-0.3,0.7-0.9,1.2-1.7,1.5
		C77,28.7,76.2,28.8,75.5,28.6z M79.2,23.5L77.6,19c-0.7,0.8-1.1,1.5-1.3,2.2s-0.2,1.4,0.1,2.2c0.2,0.5,0.5,0.9,0.8,1.2
		c0.3,0.2,0.7,0.3,1.1,0.1C78.7,24.6,79.1,24.1,79.2,23.5z"/>
	<path class="st0" d="M80.7,1.5l4.7-1.2l6.1,23.5L86.9,25L80.7,1.5z"/>
	<path class="st0" d="M90.9,5.8l4.8-0.6l0.2,1.4c1-1.3,2.3-2,3.9-2.2c0.7-0.1,1.3,0,1.9,0.3c0.5,0.3,1,0.8,1.3,1.4
		c1-1.5,2.4-2.4,4.1-2.6c1-0.1,1.9,0.2,2.6,0.8s1.1,1.7,1.3,2.9l1.6,13.4l-4.8,0.6l-1.5-12.9c-0.1-0.5-0.2-0.8-0.4-1
		c-0.2-0.2-0.5-0.3-0.8-0.2c-0.2,0-0.5,0.1-0.8,0.3c-0.3,0.1-0.5,0.3-0.8,0.6l0,0.2l1.6,13.4l-4.7,0.6L98.8,9.3
		c-0.1-0.9-0.5-1.3-1.2-1.2c-0.5,0.1-1,0.3-1.5,0.8l1.6,13.6L93,23.1L90.9,5.8z"/>
	<path class="st0" d="M114.8,19.9c-1-1-1.5-2.4-1.4-4.3l0.3-6.6c0.1-1.9,0.7-3.2,1.8-4.2c1.1-0.9,2.6-1.3,4.5-1.3
		c1.9,0.1,3.4,0.6,4.4,1.6c1,1,1.5,2.4,1.4,4.3l-0.3,6.6c-0.1,1.8-0.7,3.2-1.8,4.1c-1.1,0.9-2.6,1.3-4.5,1.3
		C117.3,21.5,115.8,20.9,114.8,19.9z M120.3,17.8c0.2-0.3,0.3-0.9,0.3-1.6l0.3-7.3c0-0.7,0-1.2-0.2-1.6c-0.2-0.4-0.5-0.5-0.9-0.6
		c-0.5,0-0.8,0.1-1,0.5c-0.2,0.4-0.3,0.9-0.3,1.5l-0.3,7.3c0,0.7,0,1.2,0.2,1.6c0.2,0.4,0.5,0.5,1,0.6
		C119.8,18.3,120.1,18.2,120.3,17.8z"/>
	<path class="st0" d="M129.4,4.5l4.8,0.8l-0.3,1.7c1.6-1.1,3.1-1.5,4.5-1.3c1,0.2,1.7,0.7,2.2,1.5c0.4,0.8,0.5,1.8,0.3,3l-2.3,13.4
		l-4.8-0.8l2.2-12.7c0.1-0.4,0.1-0.8-0.1-1s-0.3-0.4-0.7-0.4c-0.4-0.1-0.9,0.1-1.6,0.4l-2.3,13.4l-4.8-0.8L129.4,4.5z"/>
	<path class="st0" d="M148.4,24.8c-0.5-1.7-0.3-3.8,0.7-6.2l3.3-8.1c1-2.5,2.3-4.2,3.8-5c1.5-0.9,3.5-0.8,6,0.2
		c2.4,0.9,3.8,2.2,4.3,3.7c0.5,1.5,0.4,3.3-0.4,5.4l-0.8,2l-4.9-1.9l0.9-2.3c0.3-0.9,0.5-1.6,0.5-2.1s-0.4-0.9-1.1-1.2
		c-0.7-0.3-1.3-0.2-1.7,0.2c-0.4,0.4-0.8,1-1.2,1.9l-4.2,10.6c-0.4,0.9-0.5,1.6-0.5,2.2c0,0.6,0.4,1,1.1,1.3
		c0.7,0.3,1.2,0.2,1.6-0.2c0.4-0.4,0.8-1,1.1-1.9l0.9-2.4l4.9,1.9l-0.8,2c-0.8,2.1-2,3.6-3.5,4.4c-1.5,0.8-3.4,0.7-5.7-0.2
		C150.4,27.9,149,26.5,148.4,24.8z"/>
	<path class="st0" d="M162,31.3c-0.5-1.4-0.2-2.9,0.7-4.5l3.3-5.7c0.9-1.6,2.1-2.6,3.5-2.9s2.9,0,4.6,1c1.6,0.9,2.7,2.1,3.2,3.5
		s0.2,2.9-0.7,4.5l-3.3,5.7c-0.9,1.6-2.1,2.6-3.5,2.9c-1.4,0.3-3,0-4.6-1C163.5,33.8,162.5,32.6,162,31.3z M167.9,31.9
		c0.3-0.2,0.7-0.6,1-1.2l3.6-6.3c0.3-0.6,0.5-1.1,0.5-1.5c0-0.4-0.2-0.7-0.6-0.9s-0.8-0.2-1.1,0c-0.3,0.2-0.7,0.6-1,1.2l-3.6,6.3
		c-0.3,0.6-0.5,1.1-0.5,1.5c0,0.4,0.2,0.7,0.6,0.9S167.6,32.2,167.9,31.9z"/>
	<path class="st0" d="M173.3,38c-0.3-1.4,0.1-2.9,1.3-4.3l4-5.3c1.1-1.5,2.4-2.3,3.8-2.4c1.4-0.1,2.9,0.4,4.4,1.5
		c1.5,1.1,2.4,2.4,2.7,3.9c0.3,1.4-0.1,2.9-1.2,4.3l-4,5.3c-1.1,1.5-2.4,2.3-3.8,2.4s-2.9-0.4-4.4-1.5
		C174.5,40.7,173.6,39.4,173.3,38z M179,39.4c0.4-0.2,0.7-0.5,1.2-1.1l4.4-5.8c0.4-0.6,0.7-1,0.7-1.4s-0.1-0.7-0.5-1
		s-0.7-0.3-1.1-0.2s-0.8,0.5-1.2,1.1l-4.4,5.8c-0.4,0.6-0.7,1-0.7,1.4c-0.1,0.4,0.1,0.7,0.5,1C178.3,39.5,178.7,39.6,179,39.4z"/>
	<path class="st0" d="M198.9,28.6l3.5,3.4l-9.5,9.6l7.6-1.6l3.9,3.9l-8.3,1.8l-3.9,10.5l-3.8-3.8l3.6-8l-2.1,0.3l-4.6,4.7l-3.5-3.4
		L198.9,28.6z"/>
	<path class="st0" d="M205.7,45.7l3.1,3.8l-13.4,11l-3.1-3.8L205.7,45.7z M210.6,41.7l3.1,3.8l-2.6,2.1l-3.1-3.8L210.6,41.7z"/>
	<path class="st0" d="M198.3,62.2c0.2-1.4,1.1-2.7,2.7-3.7l5.3-3.5c1.5-1,3-1.4,4.4-1.1c1.4,0.3,2.7,1.3,3.7,2.8
		c1.1,1.6,1.5,3.1,1.2,4.4c-0.3,1.3-1.2,2.5-2.8,3.6l-2.9,1.9l-3.9-5.8l-2.8,1.9c-1,0.7-1.3,1.4-0.9,2c0.5,0.7,1.2,0.7,2.1,0.1
		l1.5-1l2.5,3.7l-1.4,0.9c-1.4,1-2.8,1.3-4.1,0.9c-1.3-0.3-2.5-1.3-3.5-2.8C198.5,65.2,198.1,63.6,198.3,62.2z M209.3,61.7l1.4-1
		c0.5-0.4,0.8-0.7,0.9-1s0-0.7-0.2-1c-0.2-0.3-0.5-0.5-0.9-0.5c-0.4,0-0.9,0.2-1.5,0.6l-1.2,0.8L209.3,61.7z"/>
	<path class="st0" d="M204.9,73.5c0.2-1.2,0.8-2.4,1.8-3.7l2.8,2.3c-0.6,0.6-0.9,1.3-1.1,1.8s-0.2,1.1,0.1,1.6
		c0.3,0.7,0.8,0.9,1.3,0.6c0.4-0.2,0.7-0.5,0.9-0.9c0.2-0.4,0.4-1.3,0.7-2.5l0.4-1.6c0.3-1.3,0.7-2.4,1.1-3.1c0.4-0.7,1.1-1.3,2-1.8
		c0.8-0.4,1.7-0.6,2.5-0.5c0.9,0.1,1.7,0.4,2.4,1c0.7,0.5,1.3,1.2,1.7,2.1c0.6,1.3,0.8,2.5,0.6,3.7c-0.3,1.2-0.9,2.3-2,3.3l-2.7-2.2
		c0.5-0.5,0.9-1,1.1-1.6s0.3-1.1,0.1-1.6c-0.1-0.3-0.3-0.5-0.6-0.6c-0.2-0.1-0.5-0.1-0.8,0.1c-0.3,0.2-0.6,0.5-0.8,1.1
		c-0.2,0.5-0.4,1.3-0.6,2.4l-0.4,1.6c-0.3,1.3-0.6,2.3-1,3.1c-0.4,0.8-1,1.4-1.9,1.9s-1.7,0.6-2.6,0.5c-0.9-0.1-1.6-0.4-2.3-1
		c-0.7-0.6-1.3-1.2-1.7-2.1C205,76,204.7,74.7,204.9,73.5z"/>
</g>
<g>
	<path class="st0" d="M12.1,177.2l10.3-11l2.5,4.4l-5.6,5.8l7.7-1.9l2.4,4.2l-14.8,3L6,186.6l-2.5-4.5L12.1,177.2z"/>
	<path class="st0" d="M11.4,193.3c0.1-1.4,1-2.7,2.5-3.8l5.3-3.9c1.5-1.1,3-1.5,4.4-1.2s2.7,1.2,3.8,2.7c1.1,1.5,1.6,3,1.5,4.5
		c-0.1,1.4-1,2.7-2.4,3.8l-5.3,3.9c-1.5,1.1-2.9,1.5-4.4,1.2c-1.4-0.3-2.7-1.2-3.8-2.7S11.3,194.7,11.4,193.3z M16.5,196.3
		c0.4-0.1,0.9-0.3,1.4-0.7l5.9-4.3c0.6-0.4,0.9-0.8,1.1-1.1c0.2-0.4,0.1-0.7-0.1-1.1c-0.3-0.4-0.6-0.5-1-0.5
		c-0.4,0.1-0.9,0.3-1.4,0.7l-5.9,4.3c-0.6,0.4-0.9,0.8-1.1,1.2c-0.2,0.4-0.1,0.7,0.2,1.1C15.8,196.2,16.2,196.3,16.5,196.3z"/>
	<path class="st0" d="M20.6,205.6c0.2-0.9,0.7-1.8,1.5-2.6l9.8-9.4l3.4,3.5l-9.4,9c-0.3,0.3-0.5,0.6-0.6,0.9c0,0.3,0.1,0.5,0.3,0.8
		c0.2,0.2,0.7,0.5,1.4,0.7l10-9.5l3.4,3.5l-12.5,12l-3.4-3.5l1.2-1.1c-1.9-0.1-3.3-0.7-4.2-1.7C20.7,207.4,20.4,206.5,20.6,205.6z"
		/>
	<path class="st0" d="M42.8,204.5c0.6,0.5,1.1,0.6,1.6,0.4s1-0.6,1.6-1.3l-1.6-1.4l2.8-3.2l3.2,2.8c-0.6,0.7-1.3,1.5-2.2,2.5
		c-1.2,1.3-2.3,2.1-3.2,2.4c-0.9,0.3-1.9,0-2.9-0.9L42.8,204.5z"/>
	<path class="st0" d="M51.7,202.9l3.9,2.9l-14.7,19.4l-3.9-2.9L51.7,202.9z"/>
	<path class="st0" d="M57.6,207.2l4.1,2.6l-13.2,20.4l-4.1-2.6L57.6,207.2z"/>
	<path class="st0" d="M55.7,240.1l1.5-3.2c0.3,0.2,0.5,0.4,0.7,0.5c0.8,0.4,1.4,0.1,1.8-0.8l7.4-15.9l4.4,2.1l-7.6,16.4
		c-0.6,1.3-1.4,2.1-2.5,2.6c-1.1,0.4-2.2,0.4-3.5-0.2C57.1,241.2,56.3,240.7,55.7,240.1z M69.8,215l4.4,2.1l-1.4,3.1l-4.4-2.1
		L69.8,215z"/>
	<path class="st0" d="M69,239.8c-0.3-0.9-0.2-1.9,0.2-3l4.4-12.8l4.6,1.6L74,237.8c-0.1,0.4-0.2,0.8-0.1,1c0.1,0.3,0.3,0.4,0.6,0.6
		c0.3,0.1,0.8,0.1,1.5,0l4.5-13l4.6,1.6l-5.7,16.4l-4.6-1.6l0.5-1.5c-1.7,0.7-3.2,0.9-4.5,0.4C69.9,241.3,69.3,240.6,69,239.8z"/>
	<path class="st0" d="M87.3,228.7l4.7,0.8l-0.2,1.4c1.3-0.9,2.8-1.3,4.3-1c0.7,0.1,1.3,0.4,1.7,0.8s0.7,1,0.9,1.7
		c1.4-1.2,3-1.6,4.7-1.3c1,0.2,1.7,0.7,2.2,1.5s0.6,1.9,0.4,3.2l-2.2,13.3l-4.7-0.8l2.1-12.8c0.1-0.5,0.1-0.8-0.1-1.1
		c-0.1-0.2-0.4-0.4-0.7-0.4c-0.2,0-0.5,0-0.8,0c-0.3,0.1-0.6,0.2-0.9,0.3l0,0.2l-2.2,13.3l-4.7-0.8l2.1-12.8
		c0.1-0.9-0.1-1.4-0.8-1.5c-0.5-0.1-1,0-1.7,0.4l-2.3,13.5l-4.7-0.8L87.3,228.7z"/>
	<path class="st0" d="M108.9,231.7l4.9,0.1l0,1.3c0.6-0.5,1.2-0.9,1.8-1.1c0.7-0.2,1.3-0.4,1.9-0.4c1.3,0,2.2,0.5,2.8,1.5
		c0.6,1,0.9,2.2,0.9,3.7l-0.1,7.5c0,1.7-0.4,3-1.1,3.9c-0.7,0.9-1.6,1.4-2.8,1.4c-1.2,0-2.4-0.6-3.7-1.7l-0.1,7l-4.9-0.1
		L108.9,231.7z M115.8,245.8c0.2-0.4,0.3-0.8,0.3-1.4l0.1-8.1c0-0.5-0.1-1-0.3-1.3c-0.2-0.3-0.5-0.5-0.9-0.5c-0.5,0-0.9,0.2-1.4,0.6
		l-0.2,10.8c0.5,0.3,0.9,0.5,1.3,0.5C115.2,246.3,115.6,246.1,115.8,245.8z"/>
	<path class="st0" d="M131.9,233.9l-1.6,0.3l-0.6-3.2l1.6-0.3l-0.2-1.3c-0.2-1.1-0.3-2.1-0.2-2.8c0.1-0.7,0.4-1.4,1.1-1.9
		c0.6-0.5,1.6-0.9,2.9-1.1c0.8-0.1,1.6-0.2,2.3-0.3l0.6,3.6c-0.5,0-0.8,0-1.1,0c-0.7,0.1-1,0.6-0.9,1.5l0.2,1.4l2.2-0.4l0.6,3.3
		l-2.2,0.4l2.4,13.8l-4.8,0.8L131.9,233.9z"/>
	<path class="st0" d="M145.3,244.4c-1.3-0.6-2.2-1.8-2.7-3.6l-1.8-6.3c-0.5-1.8-0.4-3.3,0.4-4.5c0.8-1.2,2.1-2.1,3.9-2.6
		c1.8-0.5,3.4-0.5,4.7,0.2c1.3,0.6,2.2,1.8,2.7,3.6l1.8,6.3c0.5,1.8,0.4,3.3-0.4,4.5c-0.8,1.2-2.1,2.1-3.9,2.6
		C148.1,245.1,146.5,245,145.3,244.4z M149.8,240.7c0.1-0.4,0-0.9-0.2-1.6l-2-7c-0.2-0.7-0.4-1.2-0.7-1.4c-0.3-0.3-0.6-0.4-1.1-0.2
		s-0.7,0.4-0.8,0.8c-0.1,0.4,0,0.9,0.2,1.6l2,7c0.2,0.7,0.4,1.2,0.7,1.4c0.3,0.3,0.6,0.4,1.1,0.2C149.5,241.3,149.8,241,149.8,240.7
		z"/>
	<path class="st0" d="M152.9,225.1l4.5-1.9l1.1,2.7c0.1-1.2,0.4-2.2,0.7-2.8c0.3-0.7,0.8-1.2,1.5-1.5c0.3-0.1,0.5-0.2,0.7-0.2
		l1.9,4.5c-0.6,0-1.2,0.1-1.6,0.3c-1,0.4-1.6,1.3-2,2.7l4.3,10.4l-4.5,1.9L152.9,225.1z"/>
	<path class="st0" d="M180.5,230.4c-0.8,0.1-1.5-0.1-2.1-0.6c-0.6-0.4-1.2-1.1-1.8-2.1l-5-8l-1.4,0.9l-1.7-2.7l1.4-0.9l-2.8-4.5
		l4.2-2.6l2.8,4.5l2.1-1.3l1.7,2.7l-2.1,1.3l4.7,7.6c0.3,0.4,0.6,0.6,0.9,0.7c0.4,0.1,0.7-0.1,1.1-0.3c0.3-0.2,0.7-0.5,1.1-0.8
		l2,3.3c-0.7,0.6-1.5,1.2-2.4,1.8C182.2,230,181.3,230.3,180.5,230.4z"/>
	<path class="st0" d="M173.6,206.5l3.8-3l5.3,6.6c0.2-1.7,0.9-3.1,2.2-4.1c0.8-0.6,1.6-0.8,2.5-0.6c0.9,0.2,1.7,0.8,2.5,1.8
		l8.5,10.6l-3.8,3l-8-10.1c-0.3-0.3-0.5-0.6-0.8-0.6c-0.2-0.1-0.5,0-0.8,0.2c-0.3,0.3-0.6,0.8-0.9,1.5l8.5,10.6l-3.8,3L173.6,206.5z
		"/>
	<path class="st0" d="M201.7,213c-1.5,0.1-2.9-0.6-4.2-1.8l-4.6-4.4c-1.3-1.3-2-2.7-2-4.1c0-1.5,0.7-2.9,2-4.2
		c1.3-1.4,2.7-2.1,4.1-2.1c1.4,0,2.7,0.7,4.1,2l2.5,2.4l-4.8,5l2.4,2.3c0.9,0.9,1.6,1,2.2,0.4c0.6-0.6,0.5-1.3-0.3-2.1l-1.3-1.3
		l3.1-3.2l1.2,1.2c1.2,1.2,1.8,2.5,1.8,3.8s-0.7,2.7-2,4C204.5,212.3,203.1,213,201.7,213z M198.9,202.4l-1.2-1.2
		c-0.5-0.4-0.9-0.7-1.2-0.7c-0.4,0-0.7,0.1-0.9,0.4c-0.3,0.3-0.4,0.6-0.3,0.9s0.4,0.8,0.9,1.3l1.1,1L198.9,202.4z"/>
	<path class="st0" d="M198.6,193.3l2.7-3.9l1.1,0.8c-0.3-1.6,0-3.1,1-4.3c0.4-0.6,0.9-1,1.5-1.2c0.6-0.2,1.2-0.2,1.9-0.1
		c-0.4-1.8-0.2-3.4,0.8-4.8c0.6-0.8,1.4-1.3,2.3-1.4c1-0.1,2,0.3,3,1l11,7.7l-2.7,3.9l-10.6-7.4c-0.4-0.3-0.7-0.4-1-0.4
		c-0.3,0-0.5,0.2-0.7,0.4c-0.1,0.2-0.2,0.4-0.3,0.7c-0.1,0.3-0.1,0.6-0.1,1l0.2,0.1l11,7.7l-2.7,3.9l-10.6-7.4
		c-0.7-0.5-1.3-0.5-1.7,0.1c-0.3,0.4-0.4,0.9-0.4,1.7l11.2,7.8l-2.8,3.9L198.6,193.3z"/>
	<path class="st0" d="M204.5,171.8l2.2-4.3l15.2,9.9l-0.8,1.5L204.5,171.8z M221.9,180.9l2.1-4.1l4.1,2.1L226,183L221.9,180.9z"/>
</g>
</svg>
